<svg xmlns="http://www.w3.org/2000/svg" width="44" height="44" viewBox="0 0 44 44">
  <g id="btn_shuffle" transform="translate(-307 -258)">
    <g id="Group_717" data-name="Group 717" transform="translate(16 -19)">
      <g id="Group_712" data-name="Group 712" transform="translate(229.554 -3.95)">
        <g id="Group_711" data-name="Group 711">
          <path id="Path_39" data-name="Path 39" d="M73.579,298.761h1.5a2.984,2.984,0,0,1,1.574.446l2.14,2.281,1.372-1.461-2.138-2.279a1.031,1.031,0,0,0-.175-.148,4.986,4.986,0,0,0-2.773-.839h-1.5a1,1,0,0,0,0,2Z" fill="#c9c6ce"/>
          <path id="Path_40" data-name="Path 40" d="M90.737,304.868a.415.415,0,0,0-.709.293v1.847H87.87a2.992,2.992,0,0,1-1.576-.447l-2.017-2.15L82.9,305.872l2.015,2.148a1.072,1.072,0,0,0,.175.148,4.991,4.991,0,0,0,2.775.84h2.158v1.846a.415.415,0,0,0,.709.293l3.454-2.846a.415.415,0,0,0,0-.587Z" fill="#c9c6ce"/>
          <path id="Path_41" data-name="Path 41" d="M87.87,298.892h2.158v1.846a.416.416,0,0,0,.709.294l3.454-2.847a.415.415,0,0,0,0-.587l-3.454-2.846a.415.415,0,0,0-.709.294v1.846H87.87a4.99,4.99,0,0,0-2.775.839,1.072,1.072,0,0,0-.175.148l-8.269,8.813a2.985,2.985,0,0,1-1.574.447h-1.5a1,1,0,0,0,0,2h1.5a4.987,4.987,0,0,0,2.773-.84,1.031,1.031,0,0,0,.175-.148l8.269-8.813A2.991,2.991,0,0,1,87.87,298.892Z" fill="#c9c6ce"/>
        </g>
        <rect id="Rectangle_376" data-name="Rectangle 376" width="44" height="44" transform="translate(61.446 280.95)" fill="none"/>
      </g>
    </g>
    <g id="Path_51" data-name="Path 51" transform="translate(307 258)" fill="none">
      <path d="M22,0A22,22,0,1,1,0,22,22,22,0,0,1,22,0Z" stroke="none"/>
      <path d="M 22 2 C 19.29912948608398 2 16.68012046813965 2.528518676757813 14.2157096862793 3.570880889892578 C 11.83435821533203 4.578098297119141 9.695270538330078 6.020450592041016 7.857860565185547 7.857860565185547 C 6.020450592041016 9.695270538330078 4.578098297119141 11.83435821533203 3.570880889892578 14.2157096862793 C 2.528518676757813 16.68012046813965 2 19.29912948608398 2 22 C 2 24.70085906982422 2.528518676757813 27.31987953186035 3.570880889892578 29.7842903137207 C 4.578098297119141 32.16563034057617 6.020450592041016 34.30471801757813 7.857860565185547 36.14212799072266 C 9.695270538330078 37.97954940795898 11.83435821533203 39.42189788818359 14.2157096862793 40.42911911010742 C 16.68012046813965 41.47148132324219 19.29912948608398 42 22 42 C 24.70085906982422 42 27.31986999511719 41.47148132324219 29.7842903137207 40.42911911010742 C 32.16563034057617 39.42189788818359 34.30471801757813 37.97954940795898 36.14212799072266 36.14212799072266 C 37.97954940795898 34.30471801757813 39.42189788818359 32.16563034057617 40.42911911010742 29.7842903137207 C 41.47148132324219 27.31986999511719 42 24.70085906982422 42 22 C 42 19.29912948608398 41.47148132324219 16.68012046813965 40.42911911010742 14.2157096862793 C 39.42189788818359 11.83435821533203 37.97954940795898 9.695270538330078 36.14212799072266 7.857860565185547 C 34.30471801757813 6.020450592041016 32.16563034057617 4.578098297119141 29.7842903137207 3.570880889892578 C 27.31987953186035 2.528518676757813 24.70085906982422 2 22 2 M 22 0 C 34.15026092529297 0 44 9.8497314453125 44 22 C 44 34.15026092529297 34.15026092529297 44 22 44 C 9.8497314453125 44 0 34.15026092529297 0 22 C 0 9.8497314453125 9.8497314453125 0 22 0 Z" stroke="none" fill="#c9c6ce"/>
    </g>
  </g>
</svg>
