<svg xmlns="http://www.w3.org/2000/svg" width="44" height="44" viewBox="0 0 44 44">
  <g id="btn_like" transform="translate(-103.016 -237.166)">
    <g id="Group_821" data-name="Group 821">
      <path id="Path_81" data-name="Path 81" d="M125.017,268.384a2.393,2.393,0,0,1-1.349-.419c-2.759-1.882-9.206-6.746-9.457-11.28a6.255,6.255,0,0,1,.03-1.469,6.127,6.127,0,0,1,10.8-3.039,5.889,5.889,0,0,1,3.527-2.116,6.118,6.118,0,0,1,7.229,5.154,6.321,6.321,0,0,1,.028,1.492c-.249,4.511-6.7,9.376-9.455,11.258A2.392,2.392,0,0,1,125.017,268.384Zm-4.7-17.435a5.466,5.466,0,0,0-.913.078,5.131,5.131,0,0,0-4.174,4.326,5.312,5.312,0,0,0-.023,1.253c.234,4.227,6.966,9.13,9.024,10.533a1.388,1.388,0,0,0,1.57,0c2.057-1.4,8.789-6.307,9.022-10.51a5.441,5.441,0,0,0-.022-1.277,5.13,5.13,0,0,0-4.174-4.325,5.136,5.136,0,0,0-5.213,2.264.482.482,0,0,1-.415.2.5.5,0,0,1-.4-.225A5.083,5.083,0,0,0,120.318,250.949Z" fill="aqua"/>
    </g>
    <rect id="Rectangle_404" data-name="Rectangle 404" width="44" height="44" transform="translate(103.016 237.166)" fill="none"/>
  </g>
</svg>
