<svg xmlns="http://www.w3.org/2000/svg" width="44" height="44" viewBox="0 0 44 44">
  <g id="btn_like_on" transform="translate(-149.13 -237.166)">
    <g id="Group_819" data-name="Group 819">
      <path id="Path_80" data-name="Path 80" d="M171.13,252.99a5.629,5.629,0,0,0-10.28,2.294,5.812,5.812,0,0,0-.026,1.373c.24,4.338,6.653,9.132,9.24,10.895a1.888,1.888,0,0,0,2.133,0c2.587-1.763,9-6.557,9.24-10.895a5.812,5.812,0,0,0-.026-1.373,5.643,5.643,0,0,0-4.586-4.749,5.636,5.636,0,0,0-5.695,2.455Z" fill="aqua"/>
    </g>
    <rect id="Rectangle_403" data-name="Rectangle 403" width="44" height="44" transform="translate(149.13 237.166)" fill="none"/>
  </g>
</svg>
