<svg xmlns="http://www.w3.org/2000/svg" width="26.132" height="8.469" viewBox="0 0 26.132 8.469">
  <g id="motion_on" transform="translate(-235.631 -199.082)">
    <path id="Path_96" data-name="Path 96" d="M238.515,203.709l.018-.042a1.5,1.5,0,1,0-2.767-1.159l-.018.042a1.5,1.5,0,0,0,2.767,1.159" fill="#29dde0" opacity="0.2"/>
    <path id="Path_97" data-name="Path 97" d="M261.39,203.478l.031-.039a1.5,1.5,0,1,0-2.316-1.906l-.032.039a1.5,1.5,0,0,0,2.317,1.906" fill="#29dde0"/>
    <path id="Path_98" data-name="Path 98" d="M254.838,207.535l.134-.021a1.5,1.5,0,0,0-.484-2.961l-.086.014a1.5,1.5,0,0,0,.436,2.968Z" fill="#29dde0" opacity="0.8"/>
    <path id="Path_99" data-name="Path 99" d="M247.415,205.49l.1.069a1.5,1.5,0,1,0,1.68-2.485l-.082-.056a1.5,1.5,0,1,0-1.7,2.472Z" fill="#29dde0" opacity="0.6"/>
    <g id="Group_837" data-name="Group 837" opacity="0.4">
      <path id="Path_100" data-name="Path 100" d="M242.4,202.046l.087.021a1.5,1.5,0,0,0,.7-2.918l-.129-.03a1.5,1.5,0,0,0-.658,2.927Z" fill="#29dde0"/>
    </g>
  </g>
</svg>
