<svg xmlns="http://www.w3.org/2000/svg" width="44" height="44" viewBox="0 0 44 44">
  <g id="btn_last" transform="translate(-221.305 -326.591)">
    <path id="Path_86" data-name="Path 86" d="M254.488,356.947a2,2,0,0,1-1.019-.282l-8.647-5.1v3.377a2,2,0,0,1-3.022,1.726L231.192,350.4a2.185,2.185,0,0,1,0-3.763l10.335-6.1a2.184,2.184,0,0,1,3.3,1.881v3.061l3.41-2.012a.5.5,0,1,1,.508.861l-4.164,2.457a.5.5,0,0,1-.754-.431v-3.936a1.184,1.184,0,0,0-1.787-1.02L231.7,347.5a1.186,1.186,0,0,0,0,2.041l10.608,6.261a1,1,0,0,0,1.514-.865v-4.253a.5.5,0,0,1,.252-.434.505.505,0,0,1,.5,0l9.4,5.549a1,1,0,0,0,1.514-.865V342.423a1.184,1.184,0,0,0-1.787-1.02l-2.568,1.539a.5.5,0,0,1-.515-.857l2.571-1.542a2.185,2.185,0,0,1,3.3,1.88v12.516a1.985,1.985,0,0,1-1.01,1.741A2.012,2.012,0,0,1,254.488,356.947Z" fill="#fff"/>
    <rect id="Rectangle_407" data-name="Rectangle 407" width="44" height="44" transform="translate(221.305 326.591)" fill="none"/>
  </g>
</svg>
