<svg xmlns="http://www.w3.org/2000/svg" width="44" height="44" viewBox="0 0 44 44">
  <g id="btn_repeat1" transform="translate(-280 -592)">
    <g id="Group_712" data-name="Group 712" transform="translate(218.555 311.05)">
      <rect id="Rectangle_376" data-name="Rectangle 376" width="44" height="44" transform="translate(61.446 280.95)" fill="none"/>
      <g id="Group_732" data-name="Group 732" transform="translate(-261.047 43.964)">
        <g id="Group_734" data-name="Group 734">
          <g id="Group_732-2" data-name="Group 732">
            <path id="Path_52" data-name="Path 52" d="M333.522,258.436v-1.343a2,2,0,0,1,2-2h14.307v1.846a.416.416,0,0,0,.709.294l3.6-2.847a.415.415,0,0,0,0-.587l-3.6-2.846a.416.416,0,0,0-.709.294v1.846H335.522a4,4,0,0,0-4,4v1.343a1,1,0,0,0,2,0Z" fill="#c9c6ce"/>
            <path id="Path_53" data-name="Path 53" d="M354.256,257.536a1,1,0,0,0-1,1v2.343a2,2,0,0,1-2,2H336.949v-1.846a.416.416,0,0,0-.709-.294l-3.6,2.847a.413.413,0,0,0,0,.587l3.6,2.846a.416.416,0,0,0,.709-.294v-1.846h14.307a4,4,0,0,0,4-4v-2.343A1,1,0,0,0,354.256,257.536Z" fill="#c9c6ce"/>
          </g>
          <g id="Group_733" data-name="Group 733" transform="translate(-1 -2.388)">
            <path id="Path_54" data-name="Path 54" d="M356.944,252.647l-.691.276a.736.736,0,1,1-.426-1.407l1.626-.6c.531-.23,1.015-.012,1.015.808v6.458c0,.853-1.523.876-1.523,0Z" transform="translate(0)" fill="#c9c6ce"/>
          </g>
        </g>
        <rect id="Rectangle_386" data-name="Rectangle 386" width="44" height="44" transform="translate(322.492 236.986)" fill="none"/>
      </g>
    </g>
    <g id="Path_51" data-name="Path 51" transform="translate(280 592)" fill="none">
      <path d="M22,0A22,22,0,1,1,0,22,22,22,0,0,1,22,0Z" stroke="none"/>
      <path d="M 22 2 C 19.29912948608398 2 16.68012046813965 2.528518676757813 14.2157096862793 3.570880889892578 C 11.83435821533203 4.578098297119141 9.695270538330078 6.020450592041016 7.857860565185547 7.857860565185547 C 6.020450592041016 9.695270538330078 4.578098297119141 11.83435821533203 3.570880889892578 14.2157096862793 C 2.528518676757813 16.68012046813965 2 19.29912948608398 2 22 C 2 24.70085906982422 2.528518676757813 27.31987953186035 3.570880889892578 29.7842903137207 C 4.578098297119141 32.16563034057617 6.020450592041016 34.30471801757813 7.857860565185547 36.14212799072266 C 9.695270538330078 37.97954940795898 11.83435821533203 39.42189788818359 14.2157096862793 40.42911911010742 C 16.68012046813965 41.47148132324219 19.29912948608398 42 22 42 C 24.70085906982422 42 27.31986999511719 41.47148132324219 29.7842903137207 40.42911911010742 C 32.16563034057617 39.42189788818359 34.30471801757813 37.97954940795898 36.14212799072266 36.14212799072266 C 37.97954940795898 34.30471801757813 39.42189788818359 32.16563034057617 40.42911911010742 29.7842903137207 C 41.47148132324219 27.31986999511719 42 24.70085906982422 42 22 C 42 19.29912948608398 41.47148132324219 16.68012046813965 40.42911911010742 14.2157096862793 C 39.42189788818359 11.83435821533203 37.97954940795898 9.695270538330078 36.14212799072266 7.857860565185547 C 34.30471801757813 6.020450592041016 32.16563034057617 4.578098297119141 29.7842903137207 3.570880889892578 C 27.31987953186035 2.528518676757813 24.70085906982422 2 22 2 M 22 0 C 34.15026092529297 0 44 9.8497314453125 44 22 C 44 34.15026092529297 34.15026092529297 44 22 44 C 9.8497314453125 44 0 34.15026092529297 0 22 C 0 9.8497314453125 9.8497314453125 0 22 0 Z" stroke="none" fill="#c9c6ce"/>
    </g>
  </g>
</svg>
