<svg xmlns="http://www.w3.org/2000/svg" width="44" height="44" viewBox="0 0 44 44">
  <g id="btn_next" transform="translate(-317.513 -326.591)">
    <path id="Path_87" data-name="Path 87" d="M340,356.947a2.013,2.013,0,0,1-2.005-2.008v-3.377l-8.646,5.1a2,2,0,0,1-3.023-1.726V342.423a2.184,2.184,0,0,1,3.3-1.881l2.574,1.543a.5.5,0,1,1-.513.857L329.11,341.4a1.185,1.185,0,0,0-1.784,1.022v12.516a1,1,0,0,0,1.515.865l9.4-5.549a.5.5,0,0,1,.754.431v4.253a1,1,0,0,0,1.515.865l10.607-6.261a1.185,1.185,0,0,0,0-2.041l-10.334-6.1a1.185,1.185,0,0,0-1.788,1.02v3.936a.5.5,0,0,1-.754.431l-4.163-2.457a.5.5,0,1,1,.508-.861l3.409,2.012v-3.061a2.185,2.185,0,0,1,3.3-1.881l10.334,6.1a2.184,2.184,0,0,1,0,3.763l-10.607,6.261A2,2,0,0,1,340,356.947Z" fill="#fff"/>
    <rect id="Rectangle_408" data-name="Rectangle 408" width="44" height="44" transform="translate(361.513 370.591) rotate(-180)" fill="none"/>
  </g>
</svg>
