<svg xmlns="http://www.w3.org/2000/svg" xmlns:xlink="http://www.w3.org/1999/xlink" width="84" height="84" viewBox="0 0 84 84">
  <defs>
    <filter id="Ellipse_6" x="0" y="0" width="84" height="84" filterUnits="userSpaceOnUse">
      <feOffset input="SourceAlpha"/>
      <feGaussianBlur stdDeviation="4" result="blur"/>
      <feFlood flood-opacity="0.6"/>
      <feComposite operator="in" in2="blur"/>
      <feComposite in="SourceGraphic"/>
    </filter>
  </defs>
  <g id="btn_play_album" transform="translate(-230 -256)">
    <g id="Group_721" data-name="Group 721" transform="translate(0 -3)">
      <g id="Group_713" data-name="Group 713" transform="translate(242 271)">
        <rect id="Rectangle_377" data-name="Rectangle 377" width="60" height="59.674" transform="translate(0 0)" fill="none"/>
      </g>
      <g id="Group_720" data-name="Group 720" transform="translate(-2 -2)">
        <g transform="matrix(1, 0, 0, 1, 232, 261)" filter="url(#Ellipse_6)">
          <circle id="Ellipse_6-2" data-name="Ellipse 6" cx="30" cy="30" r="30" transform="translate(12 12)" fill="#29dde0"/>
        </g>
        <path id="Path_42" data-name="Path 42" d="M125.98,300.634a3.859,3.859,0,0,1-3.843-3.849v-20.26a4.136,4.136,0,0,1,6.238-3.562l2.861,1.689a1.408,1.408,0,1,1-1.432,2.424l-2.861-1.688a1.32,1.32,0,0,0-1.991,1.136v20.26a1.026,1.026,0,0,0,1.549.884l17.172-10.134a1.319,1.319,0,0,0,0-2.272l-8.9-5.255a1.407,1.407,0,1,1,1.43-2.424l8.9,5.254a4.135,4.135,0,0,1,0,7.123l-17.17,10.134A3.84,3.84,0,0,1,125.98,300.634Z" transform="translate(141.863 16.617)" fill="#222831"/>
      </g>
    </g>
  </g>
</svg>
