<svg xmlns="http://www.w3.org/2000/svg" width="120.382" height="29.154" viewBox="0 0 120.382 29.154">
  <g id="logo_music" transform="translate(-56.37 -76.654)">
    <path id="Path_69" data-name="Path 69" d="M61.535,87.567v14.481a2.7,2.7,0,0,1-2.818,2.7,2.433,2.433,0,0,1-2.348-2.7V80.012a2.6,2.6,0,0,1,2.348-2.7,3.221,3.221,0,0,1,2.466,1.41L69.8,90.344,78.719,78.29a2.539,2.539,0,0,1,4.461,1.722v22.036a2.433,2.433,0,0,1-2.348,2.7,2.461,2.461,0,0,1-2.505-2.7V87.567l-6.5,8.219c-1.408,1.723-3.17,1.723-4.461,0Z" transform="translate(0 0.243)" fill="#fff"/>
    <path id="Path_70" data-name="Path 70" d="M98.36,80.183a2.568,2.568,0,1,1,5.128,0V94.352c0,14.638-23.6,14.638-23.6,0V80.183a2.567,2.567,0,1,1,5.127,0V94.352c0,7.711,13.346,8.18,13.346,0Z" transform="translate(8.696 0.301)" fill="#fff"/>
    <path id="Path_71" data-name="Path 71" d="M100.867,83.771c.9-7.593,12.368-8.962,17.769-4.815,2.663,2.153-.156,5.559-2.5,3.837-2.9-1.84-9.472-2.7-10.294,1.37-1.057,6.419,15.969,2.74,15.695,13.151-.274,9.941-14.677,10.176-20.078,5.713a2.9,2.9,0,0,1-.549-3.835,2.309,2.309,0,0,1,3.485-.274c3.209,2.192,11.468,3.835,12.054-1.722C115.936,91.4,99.653,94.887,100.867,83.771Z" transform="translate(16.289)" fill="#fff"/>
    <path id="Path_72" data-name="Path 72" d="M119.376,80c0-3.875,5.4-3.523,5.4,0V93.777c0,3.053-5.4,3.366-5.4,0Z" transform="translate(23.299 0.211)" fill="#fff"/>
    <circle id="Ellipse_10" data-name="Ellipse 10" cx="2.929" cy="2.929" r="2.929" transform="translate(142.466 99.414)" fill="#29dde0"/>
    <path id="Path_73" data-name="Path 73" d="M126.748,91.1c0-7.554,4.737-14.051,13.739-14.051a12.8,12.8,0,0,1,8.962,3.483,2.538,2.538,0,1,1-3.483,3.679,6.77,6.77,0,0,0-5.479-2.153c-6.028,0-8.924,4.267-8.924,9.042,0,4.853,2.857,9.315,8.924,9.315a9.113,9.113,0,0,0,6.105-2.5,2.637,2.637,0,0,1,3.6.468,2.7,2.7,0,0,1-.43,3.679c-2.74,2.545-6.028,3.053-9.276,3.053C131.015,105.113,126.748,98.654,126.748,91.1Z" transform="translate(26.025 0.146)" fill="#fff"/>
  </g>
</svg>
