<svg xmlns="http://www.w3.org/2000/svg" width="25" height="28.251" viewBox="0 0 25 28.251">
  <path id="btn_play_lg" d="M125.98,300.634a3.859,3.859,0,0,1-3.843-3.849v-20.26a4.136,4.136,0,0,1,6.238-3.562l2.861,1.689a1.408,1.408,0,1,1-1.432,2.424l-2.861-1.688a1.32,1.32,0,0,0-1.991,1.136v20.26a1.026,1.026,0,0,0,1.549.884l17.172-10.134a1.319,1.319,0,0,0,0-2.272l-8.9-5.255a1.407,1.407,0,1,1,1.43-2.424l8.9,5.254a4.135,4.135,0,0,1,0,7.123l-17.17,10.134A3.84,3.84,0,0,1,125.98,300.634Z" transform="translate(-122.137 -272.383)" fill="#fff"/>
</svg>
