<svg xmlns="http://www.w3.org/2000/svg" width="44" height="44" viewBox="0 0 44 44">
  <g id="icons_like_on" transform="translate(-56.707 -185.707)">
    <rect id="Rectangle_400" data-name="Rectangle 400" width="44" height="44" transform="translate(56.707 185.707)" fill="none"/>
    <g id="Group_815" data-name="Group 815">
      <path id="Path_78" data-name="Path 78" d="M78.708,221.311a4.039,4.039,0,0,1-2.282-.709c-4.906-3.344-13.19-9.912-13.545-16.333a9.28,9.28,0,0,1,17-5.982,1.4,1.4,0,1,1-2.338,1.541A6.481,6.481,0,0,0,65.7,202.461a6.723,6.723,0,0,0-.03,1.59c.313,5.63,9.517,12.32,12.331,14.238a1.246,1.246,0,0,0,1.409,0c2.814-1.918,12.019-8.608,12.326-14.174a6.939,6.939,0,0,0-.025-1.654A6.475,6.475,0,0,0,86.445,197a6.644,6.644,0,0,0-2.432.028,1.4,1.4,0,0,1-.55-2.746,9.424,9.424,0,0,1,3.453-.042,9.3,9.3,0,0,1,7.571,7.838,9.505,9.505,0,0,1,.042,2.254c-.35,6.357-8.633,12.925-13.54,16.269A4.038,4.038,0,0,1,78.708,221.311Z" fill="#fff"/>
      <circle id="Ellipse_15" data-name="Ellipse 15" cx="1.819" cy="1.819" r="1.819" transform="translate(84.475 200.76)" fill="#29dde0"/>
    </g>
  </g>
</svg>
