<svg xmlns="http://www.w3.org/2000/svg" width="44" height="44" viewBox="0 0 44 44">
  <g id="icons_search" transform="translate(-152.789 -138.392)">
    <rect id="Rectangle_398" data-name="Rectangle 398" width="44" height="44" transform="translate(152.789 138.392)" fill="none"/>
    <g id="Group_811" data-name="Group 811">
      <path id="Path_76" data-name="Path 76" d="M187.5,174.88a1.4,1.4,0,0,1-1.047-.47l-5.008-5.64a12.818,12.818,0,1,1,4.86-10.05,12.966,12.966,0,0,1-.178,2.143,1.4,1.4,0,0,1-2.762-.465,10.018,10.018,0,1,0-9.877,8.338,9.95,9.95,0,0,0,7.083-2.933,1.384,1.384,0,0,1,1.032-.41,1.4,1.4,0,0,1,1.005.47l5.938,6.687a1.4,1.4,0,0,1-1.046,2.33Z" fill="#fff"/>
      <circle id="Ellipse_13" data-name="Ellipse 13" cx="1.819" cy="1.819" r="1.819" transform="translate(168.588 152.101)" fill="#fff"/>
    </g>
  </g>
</svg>
