<svg xmlns="http://www.w3.org/2000/svg" width="44" height="44" viewBox="0 0 44 44">
  <g id="icons_search_on" transform="translate(-152.789 -185.968)">
    <rect id="Rectangle_401" data-name="Rectangle 401" width="44" height="44" transform="translate(152.789 185.969)" fill="none"/>
    <g id="Group_817" data-name="Group 817">
      <path id="Path_79" data-name="Path 79" d="M187.5,222.457a1.4,1.4,0,0,1-1.047-.47l-5.008-5.64a12.818,12.818,0,1,1,4.86-10.05,12.966,12.966,0,0,1-.178,2.143,1.4,1.4,0,0,1-2.762-.465,10.018,10.018,0,1,0-9.877,8.338,9.946,9.946,0,0,0,7.083-2.934,1.4,1.4,0,0,1,2.037.061l5.938,6.687a1.4,1.4,0,0,1-1.046,2.33Z" fill="#fff"/>
      <circle id="Ellipse_16" data-name="Ellipse 16" cx="1.819" cy="1.819" r="1.819" transform="translate(168.588 199.678)" fill="#29dde0"/>
    </g>
  </g>
</svg>
