<svg xmlns="http://www.w3.org/2000/svg" width="44" height="44" viewBox="0 0 44 44">
  <g id="icons_browse_on" transform="translate(-105.13 -185.707)">
    <rect id="Rectangle_399" data-name="Rectangle 399" width="44" height="44" transform="translate(105.13 185.707)" fill="none"/>
    <g id="Group_813" data-name="Group 813">
      <path id="Path_77" data-name="Path 77" d="M137.592,198.5a1.4,1.4,0,0,0-2.251.364l-3.371,6.825a5.775,5.775,0,1,0,.021,6.245,1.551,1.551,0,0,0,.084-.136l.011-.021a5.7,5.7,0,0,0,.413-.836l4.4-8.913a11.886,11.886,0,1,1-5.347-4.251,1.4,1.4,0,0,0,1.041-2.6,14.71,14.71,0,1,0,5,3.322Zm-10.461,13.3a2.974,2.974,0,1,1,2.973-2.975,2.948,2.948,0,0,1-.2,1.036l-.28.566A2.967,2.967,0,0,1,127.131,211.8Z" fill="#fff"/>
      <circle id="Ellipse_14" data-name="Ellipse 14" cx="1.819" cy="1.819" r="1.819" transform="translate(135.263 191.887)" fill="#29dde0"/>
    </g>
  </g>
</svg>
