<svg xmlns="http://www.w3.org/2000/svg" width="26.132" height="3.063" viewBox="0 0 26.132 3.063">
  <g id="motion" transform="translate(-235.631 -172.706)">
    <g id="Group_780" data-name="Group 780">
      <path id="Path_58" data-name="Path 58" d="M238.515,174.332l.018-.042a1.5,1.5,0,1,0-2.767-1.158l-.018.042a1.5,1.5,0,1,0,2.767,1.158" transform="translate(0 0.496)" fill="#29dde0"/>
      <path id="Path_59" data-name="Path 59" d="M261.39,174.1l.031-.039a1.5,1.5,0,1,0-2.316-1.906l-.032.039a1.5,1.5,0,0,0,2.317,1.906" transform="translate(0 1.096)" fill="#29dde0"/>
      <path id="Path_60" data-name="Path 60" d="M254.838,178.158l.134-.021a1.5,1.5,0,0,0-.484-2.96l-.086.013a1.5,1.5,0,0,0,.436,2.968Z" transform="translate(0 -2.451)" fill="#29dde0"/>
      <path id="Path_61" data-name="Path 61" d="M247.415,176.113l.1.07a1.5,1.5,0,0,0,1.68-2.486l-.082-.055a1.5,1.5,0,1,0-1.7,2.471Z" transform="translate(0 -0.671)" fill="#29dde0"/>
      <g id="Group_768" data-name="Group 768" transform="translate(0 3)">
        <path id="Path_62" data-name="Path 62" d="M242.4,172.669l.087.021a1.5,1.5,0,0,0,.7-2.918l-.129-.029a1.5,1.5,0,0,0-.658,2.926Z" fill="#29dde0"/>
      </g>
    </g>
  </g>
</svg>
