<svg xmlns="http://www.w3.org/2000/svg" width="14.677" height="15" viewBox="0 0 14.677 15">
  <path id="volumMax" d="M8.219,3a1.039,1.039,0,0,0-.309.053,1.41,1.41,0,0,0-.576.362L3.326,7.424H1A1.037,1.037,0,0,0-.031,8.457v4.093A1.037,1.037,0,0,0,1,13.585H3.326l4,3.976a1.147,1.147,0,0,0,1.268.362,1.221,1.221,0,0,0,.6-1.173V4.13a1.091,1.091,0,0,0-.661-1.077A.948.948,0,0,0,8.219,3Zm.011.682a.266.266,0,0,1,.085.011c.1.033.192.12.192.437V16.75c0,.364-.12.526-.2.565s-.249.043-.512-.224L3.5,12.8l-.021-.011a2.309,2.309,0,0,1-.085-.32V8.543c0-.127.115-.345.085-.32A.161.161,0,0,0,3.5,8.2L7.814,3.9A.62.62,0,0,1,8.23,3.682Zm3.592,2.43a.341.341,0,0,0-.1.65,4.251,4.251,0,0,1,.011,7.483.341.341,0,0,0,.33.6,4.942,4.942,0,0,0-.011-8.687.345.345,0,0,0-.2-.043ZM1,8.127H2.772a1.311,1.311,0,0,0-.064.416v3.923a1.356,1.356,0,0,0,.064.416H1a.329.329,0,0,1-.33-.33V8.457A.329.329,0,0,1,1,8.127Zm9.391.128a.341.341,0,0,0-.032.672,1.632,1.632,0,0,1,0,3.155.341.341,0,0,0,.171.661,2.314,2.314,0,0,0,0-4.477A.348.348,0,0,0,10.393,8.255Z" transform="translate(0.031 -3)" fill="#c9c6ce"/>
</svg>
